<svg xmlns="http://www.w3.org/2000/svg" xmlns:xlink="http://www.w3.org/1999/xlink" id="ICONS-64x" x="0" y="0" version="1.1" viewBox="0 0 96 96" xml:space="preserve" style="enable-background:new 0 0 96 96"><style type="text/css">.st0{fill:#008272}.st1{fill:#1a6b5f}.st2{fill:#4e4e4e}.st3{fill:#fff}.st4{fill:#e5e5e5}.st5,.st6{fill:none;stroke:#4e4e4e;stroke-width:3;stroke-miterlimit:10}.st6{fill:#fff;stroke:#1a6b5f}</style><path d="M9.8,91.2c-1.2,0.4-2.4,0.7-3.7,1.1C13.8,60.2,29,66,29,66l2.5,2.4l0.1,0.3C32.2,70.8,34.3,83.5,9.8,91.2z" class="st0"/><path d="M9.8,91.2c7.6-26.4,20.6-22.9,21.9-22.6C32.2,70.8,34.3,83.5,9.8,91.2z" class="st1"/><polygon points="32.9 74.7 22.1 63.9 30.7 61.8 34.8 65.8" class="st2"/><polygon points="35 50.8 5.8 49.7 1.5 45.4 26.4 33.5 36.8 37.4" class="st2"/><polygon points="47.4 59.6 48.4 88.8 52.8 93.1 64.6 68.3 60.7 57.9" class="st2"/><path d="M41.5,72.5h-0.3L41,72.2L25.6,56.2v-0.4c2.8-11.8,8.9-22.5,17.6-31c14-13.9,46.6-19.7,47.9-20l1.1-0.2l-0.2,1.1	c0,0-0.6,3.4-1.7,8.3C87,27.4,81.3,45.2,72.3,54.3C58.2,68.5,42.8,72.5,41.5,72.5z" class="st3"/><path d="M89.4,15.9c-2.6,10.9-8.2,29.7-17.7,39.3C57.6,69.4,42.2,72.3,41.4,72.5l-8.6-8.6c0,0,2.7-15.8,17.3-30.3	C59.7,24.1,78.5,18.5,89.4,15.9z" class="st4"/><path d="M92.4,4.2c-9.6,1.8-19,4.6-28,8.3L84.9,33C88.2,23.6,90.7,14,92.4,4.2z" class="st1"/><path d="M41.5,72.5h-0.3L41,72.2L25.6,56.2v-0.4c2.8-11.8,8.9-22.5,17.6-31c14-13.9,46.6-19.7,47.9-20l1.1-0.2l-0.2,1.1	c0,0-0.6,3.4-1.7,8.3C87,27.4,81.3,45.2,72.3,54.3C58.2,68.5,42.8,72.5,41.5,72.5z" class="st5"/><circle cx="56.5" cy="39.6" r="7.6" class="st6"/></svg>