<svg xmlns="http://www.w3.org/2000/svg" xmlns:xlink="http://www.w3.org/1999/xlink" id="Layer_1" x="0" y="0" version="1.1" viewBox="0 0 96 96" xml:space="preserve" style="enable-background:new 0 0 96 96"><style type="text/css">.st0{fill:#4e4e4e}.st1{fill:#e5e5e5}.st2{fill:#1a6b5f}</style><g><path d="M36.7,94H4.9V3h31.8V94z M7.8,91.1h26V5.9h-26V91.1z" class="st0"/></g><g><path d="M90.1,94H62.7V14.6h27.4V94z M65.6,91.1h21.7V17.4H65.6V91.1z" class="st0"/></g><g><path d="M65.6,94H33.8V3h31.8V94z M36.7,91.1h26V5.9h-26V91.1z" class="st0"/></g><g><rect width="27.4" height="2.9" x="6.3" y="13.1" class="st0"/></g><g><rect width="27.4" height="2.9" x="6.3" y="81" class="st0"/></g><g><rect width="8.7" height="59.2" x="65.6" y="24.7" class="st1"/></g><g><rect width="24.6" height="2.9" x="64.1" y="24.7" class="st0"/></g><g><rect width="26" height="7.2" x="7.8" y="5.9" class="st1"/></g><g><rect width="26" height="7.2" x="7.8" y="83.9" class="st1"/></g><g><rect width="21.7" height="7.2" x="65.6" y="17.4" class="st1"/></g><g><rect width="21.7" height="10.1" x="65.6" y="81" class="st1"/></g><g><rect width="10.1" height="85.2" x="36.7" y="5.9" class="st1"/></g><g><rect width="8.7" height="65" x="7.8" y="16" class="st1"/></g><g><rect width="20.2" height="7.2" x="39.6" y="11.7" class="st2"/></g><g><rect width="20.2" height="7.2" x="39.6" y="78.1" class="st2"/></g><g><rect width="24.6" height="2.9" x="64.1" y="79.6" class="st0"/></g></svg>